Coordinates
version=1
nRows=13
nColumns=63
inDegrees=yes

Units are S.I. units (second, meters, Newtons, ...)
If the header above contains a line with 'inDegrees', this indicates whether rotational values are in degrees (yes) or radians (no).

endheader
time	pelvis_tilt	pelvis_list	pelvis_rotation	pelvis_tx	pelvis_ty	pelvis_tz	hip_flexion_r	hip_adduction_r	hip_rotation_r	knee_angle_r	knee_angle_r_beta	ankle_angle_r	subtalar_angle_r	mtp_angle_r	hip_flexion_l	hip_adduction_l	hip_rotation_l	knee_angle_l	knee_angle_l_beta	ankle_angle_l	subtalar_angle_l	mtp_angle_l	L5_S1_Flex_Ext	L5_S1_Lat_Bending	L5_S1_axial_rotation	L4_L5_Flex_Ext	L4_L5_Lat_Bending	L4_L5_axial_rotation	L3_L4_Flex_Ext	L3_L4_Lat_Bending	L3_L4_axial_rotation	L2_L3_Flex_Ext	L2_L3_Lat_Bending	L2_L3_axial_rotation	L1_L2_Flex_Ext	L1_L2_Lat_Bending	L1_L2_axial_rotation	L1_T12_Flex_Ext	L1_T12_Lat_Bending	L1_T12_axial_rotation	Abs_r3	Abs_r2	Abs_r1	Abs_t1	Abs_t2	neck_flexion	neck_bending	neck_rotation	arm_flex_r	arm_add_r	arm_rot_r	elbow_flex_r	pro_sup_r	wrist_flex_r	wrist_dev_r	arm_flex_l	arm_add_l	arm_rot_l	elbow_flex_l	pro_sup_l	wrist_flex_l	wrist_dev_l
2.183673	0.027861	-6.325416	104.328083	0.254325	0.468873	0.847487	0.918681	0.297881	-5.935400	6.477465	0.113053	21.295909	-9.988815	0.000000	2.290875	0.883294	4.743269	4.084639	0.071290	26.345774	12.523896	0.000000	-0.102832	-0.137403	-1.480475	-0.190970	-0.182746	-1.573005	-0.168943	-0.334081	-1.573005	-0.117527	-0.334081	-1.295416	-0.095490	-0.280192	-1.202886	-0.058758	-0.212837	-1.110356	-0.734521	-1.554328	-8.233957	0.000000	0.000000	9.421476	-4.414129	7.565637	48.480721	-4.825249	21.228656	136.056665	89.485293	7.269678	28.901237	-2.346565	-16.850504	-1.877923	87.314148	88.010462	-12.969592	7.187588
2.204082	0.286459	-5.810173	104.527097	0.252825	0.469658	0.846419	0.379092	0.659473	-6.096072	6.421980	0.112085	21.115175	-10.109953	0.000000	1.629309	0.543458	5.591614	3.864486	0.067448	26.136166	11.712006	0.000000	-0.089078	-0.079847	-1.509916	-0.165426	-0.106196	-1.604286	-0.146346	-0.194140	-1.604286	-0.101807	-0.194140	-1.321176	-0.082718	-0.162824	-1.226807	-0.050899	-0.123683	-1.132437	-0.636273	-0.903244	-8.397699	0.000000	0.000000	8.623164	-4.445605	8.181820	48.312021	-5.658831	20.458036	134.825182	89.466725	8.360573	27.261014	-1.927997	-16.222086	-2.394336	91.573335	87.937197	-12.646313	6.311506
2.224490	0.541849	-5.328600	104.842365	0.251311	0.470340	0.845748	-0.089119	1.002133	-6.392180	6.414048	0.111946	21.026009	-10.182785	0.000000	1.073463	0.215841	6.582710	3.721094	0.064945	25.923504	10.858676	0.000000	-0.079562	-0.027791	-1.571026	-0.147754	-0.036962	-1.669215	-0.130712	-0.067571	-1.669215	-0.090931	-0.067571	-1.374648	-0.073881	-0.056671	-1.276459	-0.045461	-0.043048	-1.178270	-0.568300	-0.314377	-8.737576	0.000000	0.000000	7.892317	-4.444668	8.674552	48.365617	-6.458851	19.570108	133.661049	89.432204	9.299192	25.226122	-1.257624	-15.749005	-2.875238	95.868646	87.913278	-12.311132	5.520150
2.244898	0.790276	-4.880187	105.251223	0.249789	0.470932	0.845408	-0.502142	1.330014	-6.733089	6.426934	0.112171	21.011081	-10.285460	0.000000	0.613777	-0.097018	7.653682	3.644134	0.063602	25.727227	10.029145	0.000000	-0.074914	0.019962	-1.658576	-0.139123	0.026550	-1.762237	-0.123076	0.048536	-1.762237	-0.085619	0.048536	-1.451254	-0.069565	0.040707	-1.347593	-0.042806	0.030921	-1.243932	-0.535104	0.225816	-9.224503	0.000000	0.000000	7.265571	-4.472498	9.083011	48.685133	-7.233045	18.616486	132.610671	89.387916	9.966732	22.957230	-0.327606	-15.445126	-3.379739	100.230987	87.932793	-12.013985	4.948999
2.265306	1.020979	-4.494330	105.751079	0.248250	0.471416	0.845295	-0.841315	1.615141	-7.270309	6.467101	0.112872	21.132620	-10.177086	0.000000	0.267065	-0.375154	8.833153	3.621659	0.063210	25.542714	9.192861	0.000000	-0.070627	0.062724	-1.774658	-0.131162	0.083423	-1.885574	-0.116034	0.152508	-1.885574	-0.080720	0.152508	-1.552825	-0.065585	0.127907	-1.441909	-0.040356	0.097160	-1.330993	-0.504484	0.709549	-9.870114	0.000000	0.000000	6.740898	-4.506651	9.524764	49.296223	-7.924251	17.600388	131.730747	89.330959	10.483253	20.753531	0.820067	-15.314175	-4.010879	104.699817	87.933476	-11.761681	4.734670
2.285714	1.221759	-4.178584	106.308353	0.246753	0.471801	0.845313	-1.117095	1.849691	-7.966631	6.513808	0.113687	21.375554	-9.857771	0.000000	0.023865	-0.609070	10.068408	3.638948	0.063512	25.377864	8.378229	0.000000	-0.066190	0.099809	-1.909253	-0.122921	0.132746	-2.028581	-0.108743	0.242675	-2.028581	-0.075648	0.242675	-1.670596	-0.061464	0.203530	-1.551268	-0.037821	0.154604	-1.431940	-0.472785	1.129056	-10.618691	0.000000	0.000000	6.314380	-4.546029	10.050232	50.209990	-8.501749	16.544276	131.085162	89.295126	10.840450	18.811032	2.220897	-15.366800	-4.751373	109.190725	87.853374	-11.602965	4.842237
2.306122	1.375694	-3.935617	106.887424	0.245388	0.472108	0.845391	-1.334946	2.021813	-8.756672	6.565516	0.114590	21.723556	-9.368287	0.000000	-0.130471	-0.786217	11.306797	3.680313	0.064234	25.232674	7.605009	0.000000	-0.060990	0.129230	-2.050643	-0.113265	0.171876	-2.178808	-0.100201	0.314210	-2.178808	-0.069706	0.314210	-1.794313	-0.056635	0.263526	-1.666147	-0.034850	0.200177	-1.537982	-0.435646	1.461875	-11.405060	0.000000	0.000000	5.965153	-4.552007	10.660948	51.418489	-8.946599	15.468953	130.730493	89.264097	11.030885	17.261410	3.919672	-15.623542	-5.530968	113.574844	87.662354	-11.574720	5.211705
2.326531	1.453210	-3.735501	107.460795	0.244224	0.472396	0.845487	-1.539420	2.113180	-9.631911	6.617728	0.115501	22.176717	-8.674757	0.000000	-0.244733	-0.890471	12.483073	3.735409	0.065195	25.111214	6.924992	0.000000	-0.059342	0.149017	-2.193543	-0.110205	0.198192	-2.330640	-0.097494	0.362319	-2.330640	-0.067822	0.362319	-1.919350	-0.055105	0.303875	-1.782254	-0.033908	0.230827	-1.645157	-0.423877	1.685705	-12.199829	0.000000	0.000000	5.708869	-4.490175	11.400065	52.907793	-9.196404	14.422415	130.681638	89.378605	11.038961	16.131648	5.936805	-16.099127	-6.310799	117.717378	87.364140	-11.693874	5.807794
2.346939	1.443724	-3.565525	107.977992	0.243323	0.472671	0.845530	-1.747761	2.131543	-10.297273	6.660303	0.116244	22.623403	-8.172948	0.000000	-0.353386	-0.912216	13.607696	3.785882	0.066076	25.017951	6.259764	0.000000	-0.059601	0.158683	-2.326969	-0.110686	0.211048	-2.472405	-0.097919	0.385821	-2.472405	-0.068118	0.385821	-2.036098	-0.055346	0.323586	-1.890662	-0.034056	0.245799	-1.745227	-0.425727	1.795050	-12.941903	0.000000	0.000000	5.555390	-4.353105	12.233550	54.664721	-9.237808	13.445900	130.915222	89.438545	10.847591	15.474511	8.259667	-16.797766	-7.007609	121.454541	86.972806	-11.928445	6.499403
2.367347	1.345634	-3.408191	108.400901	0.242730	0.472973	0.845476	-1.982732	2.072390	-10.812560	6.684298	0.116663	23.066869	-7.720804	0.000000	-0.491860	-0.856010	14.602391	3.812468	0.066540	24.942259	5.663634	0.000000	-0.061970	0.158693	-2.445773	-0.115085	0.211062	-2.598634	-0.101811	0.385846	-2.598634	-0.070826	0.385846	-2.140051	-0.057546	0.323607	-1.987191	-0.035410	0.245815	-1.834330	-0.442648	1.795167	-13.602656	0.000000	0.000000	5.485736	-4.084418	13.187012	56.675940	-9.062227	12.602906	131.360848	89.351055	10.354767	15.176548	10.836989	-17.705361	-7.588417	124.655354	86.517617	-12.242901	7.183115
2.387755	1.169119	-3.253579	108.721905	0.242413	0.473313	0.845354	-2.247374	1.945676	-11.166228	6.696116	0.116869	23.474366	-7.350227	0.000000	-0.667907	-0.729880	15.439676	3.819127	0.066656	24.880488	5.145500	0.000000	-0.067011	0.151231	-2.549046	-0.124446	0.201137	-2.708362	-0.110092	0.367702	-2.708362	-0.076587	0.367702	-2.230416	-0.062226	0.308390	-2.071100	-0.038290	0.234256	-1.911785	-0.478651	1.710752	-14.177032	0.000000	0.000000	5.506238	-3.667276	14.226210	58.950546	-8.680959	11.917854	131.909534	88.976588	9.515242	15.181849	13.587185	-18.768988	-8.050306	127.257784	86.065865	-12.609262	7.839195
2.408163	0.915756	-3.101521	108.928722	0.242386	0.473705	0.845229	-2.522861	1.750856	-11.369648	6.725295	0.117379	23.817531	-7.087261	0.000000	-0.866699	-0.533640	16.069240	3.831843	0.066878	24.825366	4.734645	0.000000	-0.074987	0.136419	-2.627516	-0.139259	0.181437	-2.791735	-0.123197	0.331689	-2.791735	-0.085703	0.331689	-2.299076	-0.069633	0.278186	-2.134856	-0.042848	0.211313	-1.970637	-0.535626	1.543200	-14.613454	0.000000	0.000000	5.624914	-3.102545	15.252229	61.470080	-8.151172	11.346496	132.441321	88.161834	8.375906	15.533118	16.449636	-19.966748	-8.325152	129.241248	85.675747	-13.011666	8.476986
2.428571	0.639896	-2.942182	109.038246	0.242478	0.474130	0.845122	-2.813365	1.533120	-11.502610	6.764155	0.118057	24.071142	-6.845916	0.000000	-1.098598	-0.312482	16.572960	3.822226	0.066710	24.768478	4.345253	0.000000	-0.085203	0.124368	-2.699934	-0.158230	0.165409	-2.868679	-0.139980	0.302387	-2.868679	-0.097378	0.302387	-2.362442	-0.079119	0.253610	-2.193696	-0.048685	0.192645	-2.024950	-0.608596	1.406870	-15.016220	0.000000	0.000000	5.834955	-2.435330	16.335655	64.259325	-7.468189	10.973559	132.764331	86.814349	6.955098	16.286368	19.207200	-21.110308	-8.656065	130.693063	85.368994	-13.270614	9.119046
